<?xml version="1.0" encoding="UTF-8" standalone="no"?>
<!-- Created with Inkscape (http://www.inkscape.org/) -->

<svg
   width="210mm"
   height="297mm"
   viewBox="0 0 210 297"
   version="1.1"
   id="svg1342"
   inkscape:version="1.1 (c4e8f9e, 2021-05-24)"
   sodipodi:docname="aristotle_split_33_keyboard-2021-outline-enlarged.svg"
   xmlns:inkscape="http://www.inkscape.org/namespaces/inkscape"
   xmlns:sodipodi="http://sodipodi.sourceforge.net/DTD/sodipodi-0.dtd"
   xmlns="http://www.w3.org/2000/svg"
   xmlns:svg="http://www.w3.org/2000/svg">
  <sodipodi:namedview
     id="namedview1344"
     pagecolor="#ffffff"
     bordercolor="#666666"
     borderopacity="1.0"
     inkscape:pageshadow="2"
     inkscape:pageopacity="0.0"
     inkscape:pagecheckerboard="0"
     inkscape:document-units="mm"
     showgrid="false"
     inkscape:zoom="2.6045556"
     inkscape:cx="360.71413"
     inkscape:cy="729.49105"
     inkscape:window-width="1312"
     inkscape:window-height="872"
     inkscape:window-x="117"
     inkscape:window-y="0"
     inkscape:window-maximized="0"
     inkscape:current-layer="layer1" />
  <defs
     id="defs1339" />
  <g
     inkscape:label="Layer 1"
     inkscape:groupmode="layer"
     id="layer1">
    <g
       style="fill:#000000;fill-opacity:1;stroke:#000000;stroke-linecap:round;stroke-linejoin:round;stroke-opacity:1"
       transform="matrix(0.00254,0,0,0.00254,-14.2625,180.69776)"
       id="g369" />
    <g
       style="fill:#000000;fill-opacity:0;stroke:#000000;stroke-width:-0.000393701;stroke-linecap:round;stroke-linejoin:round;stroke-opacity:1"
       id="g371"
       transform="matrix(0.00254,0,0,0.00254,-14.2625,180.69776)" />
    <g
       style="fill:#000000;fill-opacity:0;stroke:#000000;stroke-width:19.685;stroke-linecap:round;stroke-linejoin:round;stroke-opacity:1"
       id="g431"
       transform="matrix(0.00254,0,0,0.00254,-14.2625,180.69776)">
      <path
         d="m 5633,15098 -8,20372"
         id="path373" />
      <path
         d="m 7594,37438 h 3254"
         id="path375" />
      <path
         d="m 49559,45566 h 3858"
         id="path377" />
      <path
         d="M 51370,35094 V 16590"
         id="path379" />
      <path
         d="m 26389,7513 -4031,22"
         id="path381" />
      <path
         d="m 30181,10290 23236,1"
         id="path383" />
      <path
         d="m 51685,36163 3527,6027"
         id="path385" />
      <path
         d="m 53417,14622 h -79"
         id="path387" />
      <path
         d="m 53417.3,45566.9 a 2165.35,2165.35 0 0 0 1795.2,-3376.2"
         id="path389" />
      <path
         d="m 53417.3,14622 a 2165.35,2165.35 0 0 0 0,-4330.7"
         id="path391" />
      <path
         d="M 18968,9464 H 15094"
         id="path393" />
      <path
         d="m 28200,8712 130,280"
         id="path395" />
      <path
         d="m 7602,13129 3565,-3"
         id="path397" />
      <path
         d="m 20688,8460 -15,20"
         id="path399" />
      <path
         d="m 11167.7,13127 a 1968.5,1968.5 0 0 0 1965.8,-1865.5"
         id="path401" />
      <path
         d="m 15094.5,9464.57 a 1968.5,1968.5 0 0 0 -1961,1796.93"
         id="path403" />
      <path
         d="M 22358.4,7535.27 A 1968.5,1968.5 0 0 0 20689,8460.63"
         id="path405" />
      <path
         d="m 18968.5,9464.57 a 1968.5,1968.5 0 0 0 1704.8,-984.26"
         id="path407" />
      <path
         d="m 28200.8,8712.86 a 1967.03,1967.03 0 0 0 -1811,-1199.31"
         id="path409" />
      <path
         d="m 28330.7,8992.13 a 1967.72,1967.72 0 0 0 1850.4,1298.47"
         id="path411" />
      <path
         d="m 53338.6,14622 a 1968.5,1968.5 0 0 0 -1968.5,1968.6"
         id="path413" />
      <path
         d="m 10848.8,37438.8 a 1968.5,1968.5 0 0 0 909.4,-222.6"
         id="path415" />
      <path
         d="M 37278.3,39474.3 A 24173.4,24173.4 0 0 0 11758.2,37216.2"
         id="path417" />
      <path
         d="m 48191.6,45014.4 a 18911.3,18911.3 0 0 0 -10123,-5184.7"
         id="path419" />
      <path
         d="m 37278.3,39474.3 a 1974.02,1974.02 0 0 0 790.3,355.4"
         id="path421" />
      <path
         d="m 48191.6,45014.4 a 1968.5,1968.5 0 0 0 1367.5,552.5"
         id="path423" />
      <path
         d="m 51370.1,35094.5 a 1968.5,1968.5 0 0 0 315.8,1069.4"
         id="path425" />
      <path
         d="m 7602.36,13129.9 a 1968.5,1968.5 0 0 0 -1968.5,1968.5"
         id="path427" />
      <path
         d="m 5625.98,35470.3 a 1968.5,1968.5 0 0 0 1968.51,1968.5"
         id="path429" />
    </g>
    <g
       style="fill:#000000;fill-opacity:0;stroke:#000000;stroke-width:78.7402;stroke-linecap:round;stroke-linejoin:round;stroke-opacity:1"
       id="g433"
       transform="matrix(0.00254,0,0,0.00254,-14.2625,180.69776)" />
    <path
       style="fill:none;stroke:#000000;stroke-width:0.264583px;stroke-linecap:butt;stroke-linejoin:miter;stroke-opacity:1"
       d="m -2.5130769,218.40923 v 53.46 c -0.086654,4.00893 3.38942858,6.23343 6.7396154,6.39692 l 10.9661535,-0.11422 c 22.691258,-11.7318 45.269409,-8.33505 64.883078,6.05422 13.128701,2.67557 18.515326,4.48524 26.15884,13.02232 2.82955,2.37807 4.6195,1.24867 16.49122,1.25653 6.79322,-0.97958 7.1151,-8.26559 5.48308,-10.50924 l -8.2666,-15.19268 c -1.36787,-2.11674 -1.41893,-2.53795 -1.37077,-3.6554 v -45.34961 c -0.27722,-2.66702 0.92814,-3.40539 3.42692,-3.54115 9.64771,-0.57997 9.33983,-15.62855 -0.34269,-15.87808 l -57.559663,0.26641 c -3.190553,-0.57907 -3.401923,-0.95692 -4.634234,-3.26575 -1.065756,-2.80735 -2.405509,-3.80615 -5.479104,-4.25273 l -12.652803,-7e-4 c -2.329524,0.52136 -3.513797,1.60851 -4.450607,2.66146 -0.914054,1.24217 -1.018288,2.4758 -3.022466,2.58986 l -10.096894,-0.0547 c -4.927098,0.22468 -6.91098,4.10066 -6.968076,6.51115 0.148791,2.37038 -2.06654,2.67161 -3.541154,2.62731 l -8.9099998,0.22846 c -4.3857825,0.0457 -7.0303174,3.13948 -6.8538461,6.73962 z"
       id="path1821"
       sodipodi:nodetypes="cccccccccccccccccccccccc" />
  </g>
</svg>
