<?xml version="1.0" encoding="UTF-8" standalone="no"?>
<svg
   version="1.1"
   width="29.700220cm"
   height="21.000720cm"
   viewBox="0 0 116930 82680"
   id="svg467"
   sodipodi:docname="aristotle_split_33_keyboard-2021-NPTH-drl_map.svg"
   inkscape:version="1.1 (c4e8f9e, 2021-05-24)"
   xmlns:inkscape="http://www.inkscape.org/namespaces/inkscape"
   xmlns:sodipodi="http://sodipodi.sourceforge.net/DTD/sodipodi-0.dtd"
   xmlns="http://www.w3.org/2000/svg"
   xmlns:svg="http://www.w3.org/2000/svg">
  <defs
     id="defs471" />
  <sodipodi:namedview
     id="namedview469"
     pagecolor="#ffffff"
     bordercolor="#666666"
     borderopacity="1.0"
     inkscape:pageshadow="2"
     inkscape:pageopacity="0.0"
     inkscape:pagecheckerboard="0"
     inkscape:document-units="cm"
     showgrid="false"
     inkscape:zoom="1.0902534"
     inkscape:cx="287.54784"
     inkscape:cy="609.94996"
     inkscape:window-width="1312"
     inkscape:window-height="872"
     inkscape:window-x="0"
     inkscape:window-y="0"
     inkscape:window-maximized="0"
     inkscape:current-layer="svg467" />
  <title
     id="title365">SVG Picture created as aristotle_split_33_keyboard-2021-NPTH-drl_map.svg date 2021/08/05 14:03:08 </title>
  <desc
     id="desc367">Picture generated by PCBNEW </desc>
  <g
     style="fill:#000000;fill-opacity:1;stroke:#000000;stroke-linecap:round;stroke-linejoin:round;stroke-opacity:1"
     transform="translate(-5615.1575,37125.191)"
     id="g369" />
  <g
     style="fill:#000000;fill-opacity:0;stroke:#000000;stroke-width:-0.000393701;stroke-linecap:round;stroke-linejoin:round;stroke-opacity:1"
     id="g371"
     transform="translate(-5615.1575,37125.191)" />
  <g
     style="fill:#000000;fill-opacity:0;stroke:#000000;stroke-width:19.685;stroke-linecap:round;stroke-linejoin:round;stroke-opacity:1"
     id="g431"
     transform="translate(-5615.1575,37125.191)">
    <path
       d="m 5633,15098 -8,20372"
       id="path373" />
    <path
       d="m 7594,37438 h 3254"
       id="path375" />
    <path
       d="m 49559,45566 h 3858"
       id="path377" />
    <path
       d="M 51370,35094 V 16590"
       id="path379" />
    <path
       d="m 26389,7513 -4031,22"
       id="path381" />
    <path
       d="m 30181,10290 23236,1"
       id="path383" />
    <path
       d="m 51685,36163 3527,6027"
       id="path385" />
    <path
       d="m 53417,14622 h -79"
       id="path387" />
    <path
       d="m 53417.3,45566.9 a 2165.35,2165.35 0 0 0 1795.2,-3376.2"
       id="path389" />
    <path
       d="m 53417.3,14622 a 2165.35,2165.35 0 0 0 0,-4330.7"
       id="path391" />
    <path
       d="M 18968,9464 H 15094"
       id="path393" />
    <path
       d="m 28200,8712 130,280"
       id="path395" />
    <path
       d="m 7602,13129 3565,-3"
       id="path397" />
    <path
       d="m 20688,8460 -15,20"
       id="path399" />
    <path
       d="m 11167.7,13127 a 1968.5,1968.5 0 0 0 1965.8,-1865.5"
       id="path401" />
    <path
       d="m 15094.5,9464.57 a 1968.5,1968.5 0 0 0 -1961,1796.93"
       id="path403" />
    <path
       d="M 22358.4,7535.27 A 1968.5,1968.5 0 0 0 20689,8460.63"
       id="path405" />
    <path
       d="m 18968.5,9464.57 a 1968.5,1968.5 0 0 0 1704.8,-984.26"
       id="path407" />
    <path
       d="m 28200.8,8712.86 a 1967.03,1967.03 0 0 0 -1811,-1199.31"
       id="path409" />
    <path
       d="m 28330.7,8992.13 a 1967.72,1967.72 0 0 0 1850.4,1298.47"
       id="path411" />
    <path
       d="m 53338.6,14622 a 1968.5,1968.5 0 0 0 -1968.5,1968.6"
       id="path413" />
    <path
       d="m 10848.8,37438.8 a 1968.5,1968.5 0 0 0 909.4,-222.6"
       id="path415" />
    <path
       d="M 37278.3,39474.3 A 24173.4,24173.4 0 0 0 11758.2,37216.2"
       id="path417" />
    <path
       d="m 48191.6,45014.4 a 18911.3,18911.3 0 0 0 -10123,-5184.7"
       id="path419" />
    <path
       d="m 37278.3,39474.3 a 1974.02,1974.02 0 0 0 790.3,355.4"
       id="path421" />
    <path
       d="m 48191.6,45014.4 a 1968.5,1968.5 0 0 0 1367.5,552.5"
       id="path423" />
    <path
       d="m 51370.1,35094.5 a 1968.5,1968.5 0 0 0 315.8,1069.4"
       id="path425" />
    <path
       d="m 7602.36,13129.9 a 1968.5,1968.5 0 0 0 -1968.5,1968.5"
       id="path427" />
    <path
       d="m 5625.98,35470.3 a 1968.5,1968.5 0 0 0 1968.51,1968.5"
       id="path429" />
  </g>
  <g
     style="fill:#000000;fill-opacity:0;stroke:#000000;stroke-width:78.7402;stroke-linecap:round;stroke-linejoin:round;stroke-opacity:1"
     id="g433"
     transform="translate(-5615.1575,37125.191)" />
  <path
     style="fill:#a0a0a0;stroke:none;stroke-width:0.917218"
     d="m 414.88782,791.6481 c -2.1022,-0.97112 -6.87283,-4.59428 -10.60138,-8.05145 -7.42083,-6.88068 -17.37206,-14.55714 -25.93402,-20.00574 -15.97928,-10.16876 -40.92032,-20.17039 -60.42701,-24.2319 -4.98454,-1.03784 -10.22157,-2.61575 -11.63784,-3.50649 -1.41626,-0.89074 -7.45033,-4.91986 -13.40904,-8.9536 -27.52799,-18.63507 -62.06678,-31.74571 -97.05249,-36.84034 -15.15787,-2.20729 -48.01025,-2.21729 -63.28804,-0.0193 -23.22397,3.34126 -48.174509,10.82443 -67.415523,20.21927 l -9.630789,4.70243 -20.707906,0.005 -20.707904,0.005 -4.4443774,-2.75165 C 6.7114321,710.41185 4.4548884,708.08165 3.0521705,705.42567 L 0.91721798,701.38323 V 599.68684 c 0,-110.26117 -0.22180743,-105.20999 4.85917122,-110.6571 4.7276968,-5.06836 6.7575358,-5.45554 30.4756678,-5.81305 19.22419,-0.28978 22.395222,-0.54506 25.201548,-2.02888 6.869691,-3.63226 9.567595,-7.49538 11.127432,-15.93332 0.532021,-2.87796 1.526894,-6.31478 2.210829,-7.63736 1.854497,-3.5862 7.250102,-7.9532 11.172249,-9.04239 1.951539,-0.54194 12.87812,-0.97317 25.019265,-0.98739 25.48361,-0.0299 26.19663,-0.22226 33.93706,-9.15715 7.79302,-8.99561 8.30204,-9.12828 35.11305,-9.15204 29.12828,-0.0258 30.65473,0.50935 36.94361,12.95229 3.4043,6.73562 7.85606,10.98685 13.17333,12.57995 2.53692,0.76008 34.7251,1.04694 117.47519,1.04694 87.53003,0 114.85691,0.26177 117.75609,1.12803 4.68081,1.39859 10.94239,7.4858 12.47401,12.12663 0.62617,1.89731 0.96522,5.84508 0.75345,8.77282 -0.76384,10.55994 -7.9931,16.98881 -20.70723,18.41464 -8.4676,0.9496 -13.2177,3.80351 -16.72009,10.0456 l -2.29305,4.08675 -0.24651,92.01848 c -0.15994,59.70078 0.078,93.22359 0.67744,95.4498 0.50818,1.88722 9.47831,18.05727 19.93363,35.93343 18.85148,32.23167 19.01219,32.55171 19.31497,38.46402 0.27064,5.28471 -0.0115,6.50415 -2.48396,10.73554 -1.91138,3.27116 -4.16222,5.58066 -7.15137,7.33775 l -4.36209,2.56412 -22.93045,0.23942 c -20.99705,0.21922 -23.25272,0.0905 -26.75264,-1.52627 z"
     id="path1059"
     transform="scale(104.16667)" />
</svg>
